<svg width="310" height="240" viewBox="0 0 310 240" fill="none" xmlns="http://www.w3.org/2000/svg" xmlns:xlink="http://www.w3.org/1999/xlink">
<rect  x="244" y="22" width="44" height="44" rx="40" fill="#000000" fill-opacity="0.1"/>
<path d="M266,48.667C266.619,48.667 267.212,48.913 267.65,49.35C268.088,49.788 268.333,50.381 268.333,51C268.333,51.619 268.088,52.212 267.65,52.65C267.212,53.088 266.619,53.333 266,53.333C265.381,53.333 264.788,53.088 264.35,52.65C263.913,52.212 263.667,51.619 263.667,51C263.667,50.381 263.913,49.788 264.35,49.35C264.788,48.913 265.381,48.667 266,48.667ZM266,41.667C266.619,41.667 267.212,41.913 267.65,42.35C268.088,42.788 268.333,43.381 268.333,44C268.333,44.619 268.088,45.212 267.65,45.65C267.212,46.088 266.619,46.333 266,46.333C265.381,46.333 264.788,46.088 264.35,45.65C263.913,45.212 263.667,44.619 263.667,44C263.667,43.381 263.913,42.788 264.35,42.35C264.788,41.913 265.381,41.667 266,41.667M266,34.667C266.619,34.667 267.212,34.912 267.65,35.35C268.088,35.788 268.333,36.381 268.333,37C268.333,37.619 268.088,38.212 267.65,38.65C267.212,39.088 266.619,39.333 266,39.333C265.381,39.333 264.788,39.088 264.35,38.65C263.913,38.212 263.667,37.619 263.667,37C263.667,36.381 263.913,35.788 264.35,35.35C264.788,34.912 265.381,34.667 266,34.667Z" fill="#FFFFFF"/>
<path d="M121.6,48L110.24,65.52L121.6,83.2L121.52,83.2L105.6,108L91.76,100.8L103.12,83.12L91.76,65.52L107.76,40.72L121.6,48ZM169.6,47.12L158.24,64.8L169.6,82.4L169.52,82.48L153.6,107.2L139.76,100L151.12,82.4L139.76,64.8L155.76,40L169.6,47.12M218,47.12L206.48,64.8L218,82.4L218,82.48L202,107.2L188,100L199.36,82.4L188,64.8L204,40L218,47.12ZM74,200L74,136C74,131.757 75.686,127.687 78.686,124.686C81.687,121.686 85.757,120 90,120L218,120C222.243,120 226.313,121.686 229.314,124.686C232.314,127.687 234,131.757 234,136L234,200L218,200L218,184L90,184L90,200L74,200ZM106,136C103.878,136 101.843,136.843 100.343,138.343C98.843,139.843 98,141.878 98,144L98,160C98,162.122 98.843,164.157 100.343,165.657C101.843,167.157 103.878,168 106,168C108.122,168 110.157,167.157 111.657,165.657C113.157,164.157 114,162.122 114,160L114,144C114,141.878 113.157,139.843 111.657,138.343C110.157,136.843 108.122,136 106,136ZM138,136C135.878,136 133.843,136.843 132.343,138.343C130.843,139.843 130,141.878 130,144L130,160C130,162.122 130.843,164.157 132.343,165.657C133.843,167.157 135.878,168 138,168C140.122,168 142.157,167.157 143.657,165.657C145.157,164.157 146,162.122 146,160L146,144C146,141.878 145.157,139.843 143.657,138.343C142.157,136.843 140.122,136 138,136ZM170,136C167.878,136 165.843,136.843 164.343,138.343C162.843,139.843 162,141.878 162,144L162,160C162,162.122 162.843,164.157 164.343,165.657C165.843,167.157 167.878,168 170,168C172.122,168 174.157,167.157 175.657,165.657C177.157,164.157 178,162.122 178,160L178,144C178,141.878 177.157,139.843 175.657,138.343C174.157,136.843 172.122,136 170,136ZM202,136C199.878,136 197.843,136.843 196.343,138.343C194.843,139.843 194,141.878 194,144L194,160C194,162.122 194.843,164.157 196.343,165.657C197.843,167.157 199.878,168 202,168C204.122,168 206.157,167.157 207.657,165.657C209.157,164.157 210,162.122 210,160L210,144C210,141.878 209.157,139.843 207.657,138.343C206.157,136.843 204.122,136 202,136Z" fill="url(#pf_0_403_511)"/>
<defs>
<linearGradient id="pf_0_403_511" x1="70.353" y1="40" x2="239.35" y2="208.302" gradientUnits="userSpaceOnUse">
<stop stop-color="#779BE7"/>
<stop offset="1" stop-color="#A480CF"/>
</linearGradient>
</defs>
</svg>
