<svg width="44" height="44" viewBox="0 0 44 44" fill="none" xmlns="http://www.w3.org/2000/svg">
<path d="M15.2061 37.1904H29.751C31.5557 37.1904 32.6191 36.127 32.6191 34.4082V24.7832L33.6182 25.6104C33.9404 25.8896 34.3271 26.083 34.7139 26.083C35.541 26.083 36.1211 25.5674 36.1211 24.7725C36.1211 24.3428 35.9277 23.9346 35.5625 23.6338L32.6191 21.1631V16.3828C32.6191 15.8779 32.2969 15.5557 31.8027 15.5557H29.8262C29.3213 15.5557 28.9883 15.8779 28.9883 16.3828V18.1016L24.3906 14.2451C23.252 13.2891 21.7695 13.2891 20.6309 14.2451L9.4375 23.6445C9.07227 23.9453 8.87891 24.3643 8.87891 24.7617C8.87891 25.5137 9.42676 26.083 10.2861 26.083C10.6836 26.083 11.0703 25.8896 11.3926 25.6104L12.3379 24.8262V34.4082C12.3379 36.127 13.4014 37.1904 15.2061 37.1904ZM25.5723 27.6299C25.5723 27.1143 25.2393 26.7812 24.7236 26.7812H20.2764C19.7607 26.7812 19.417 27.1143 19.417 27.6299V34.4189H16.1084C15.4639 34.4189 15.1094 34.0537 15.1094 33.4092V22.4951L21.9199 16.791C22.2959 16.458 22.7148 16.458 23.1123 16.791L29.8477 22.4521V33.4092C29.8477 34.0537 29.4932 34.4189 28.8594 34.4189H25.5723V27.6299Z" fill="white"/>
</svg>
