<svg width="126" height="126" viewBox="0 0 126 126" fill="none" xmlns="http://www.w3.org/2000/svg" xmlns:xlink="http://www.w3.org/1999/xlink">
<mask id="mask_0_403_462" style="mask-type:alpha" maskUnits="userSpaceOnUse" x="5.761841" y="5.82135" width="56.273811" height="56.273811">
<circle cx="62.036" cy="62.095" r="56.274" fill="url(#pf_0_403_462)"/>
</mask>
<g filter="url(#filter403_460)">
<circle cx="62.036" cy="62.095" r="62.095" fill="url(#pf_0_403_460)"/>
</g>
<g filter="url(#filter403_461)">
<circle cx="62.036" cy="62.095" r="56.274" fill="url(#pf_0_403_461)" stroke="url(#ps_0_403_461)" stroke-width="0.485" stroke-miterlimit="3.999327"/>
</g>
<circle cx="62.036" cy="62.095" r="48.512" fill="url(#pf_0_403_464)"/>
<path d="M60.681,72.537C59.741,71.424 59.881,69.76 60.993,68.819C61.241,68.61 61.653,68.075 61.768,67.366C61.864,66.777 61.808,65.767 60.655,64.361C58.461,61.683 57.373,59.134 57.672,56.513C57.955,54.036 59.442,52.109 60.668,50.636C61.797,49.28 62.591,47.914 62.829,46.815C62.939,46.305 62.907,45.953 62.825,45.706C62.751,45.481 62.58,45.169 62.098,44.807C60.933,43.932 60.698,42.278 61.573,41.113C62.447,39.948 64.101,39.713 65.266,40.588C66.509,41.522 67.385,42.691 67.835,44.051C68.277,45.388 68.245,46.726 67.985,47.928C67.483,50.254 66.06,52.405 64.724,54.011C63.485,55.499 63.001,56.349 62.914,57.111C62.843,57.73 62.987,58.883 64.736,61.018C66.739,63.462 67.34,65.969 66.976,68.212C66.631,70.336 65.465,71.948 64.398,72.849C63.286,73.789 61.621,73.65 60.681,72.537ZM74.749,72.537C73.809,71.424 73.949,69.76 75.062,68.819C75.31,68.61 75.722,68.075 75.837,67.366C75.932,66.777 75.876,65.767 74.724,64.361C72.529,61.683 71.441,59.134 71.74,56.513C72.023,54.036 73.511,52.109 74.737,50.636C75.669,49.516 77.332,49.364 78.452,50.296C79.572,51.227 79.724,52.891 78.792,54.011C77.553,55.499 77.069,56.349 76.982,57.111C76.912,57.73 77.056,58.883 78.805,61.018C80.807,63.462 81.408,65.969 81.044,68.212C80.699,70.336 79.533,71.948 78.467,72.849C77.354,73.789 75.69,73.65 74.749,72.537ZM46.613,72.537C45.672,71.424 45.812,69.76 46.925,68.819C47.173,68.61 47.585,68.075 47.7,67.366C47.795,66.777 47.739,65.767 46.587,64.361C44.393,61.683 43.305,59.134 43.604,56.513C43.886,54.036 45.374,52.109 46.6,50.636C47.532,49.516 49.195,49.364 50.315,50.296C51.435,51.227 51.587,52.891 50.655,54.011C49.417,55.499 48.932,56.349 48.845,57.111C48.775,57.73 48.919,58.883 50.668,61.018C52.671,63.462 53.272,65.969 52.907,68.212C52.562,70.336 51.397,71.948 50.33,72.849C49.217,73.789 47.553,73.65 46.613,72.537ZM38.059,81.386C38.059,79.929 39.24,78.748 40.697,78.748L82.903,78.748C84.359,78.748 85.54,79.929 85.54,81.386C85.54,82.843 84.359,84.024 82.903,84.024L40.697,84.024C39.24,84.024 38.059,82.843 38.059,81.386Z" clip-rule="evenodd" fill-rule="evenodd" fill="#FFFFFF"/>
<defs>
<filter id="filter403_460" x="-19.464333" y="-19.404823" width="100.904762" height="100.904762" filterUnits="userSpaceOnUse" color-interpolation-filters="sRGB">
<feFlood flood-opacity="0" result="BackgroundImageFix"/>
<feColorMatrix in="SourceAlpha" type="matrix" values="0 0 0 0 0 0 0 0 0 0 0 0 0 0 0 0 0 0 127 0" result="hardAlpha"/>
<feMorphology radius="0" operator="dilate" in="SourceAlpha" result="0dropshadow"/>
<feOffset dx="3.880952" dy="3.880952"/>
<feGaussianBlur stdDeviation="9.702381"/>
<feComposite in2="hardAlpha" operator="out"/>
<feColorMatrix type="matrix" values="0 0 0 0 0.556863 0 0 0 0 0.607843 0 0 0 0 0.682353 0 0 0 0.1 0"/>
<feBlend mode="normal" in2="BackgroundImageFix" result="0dropshadow"/>
<feBlend mode="normal" in="SourceGraphic" in2="0dropshadow" result="shape"/>
</filter>
<linearGradient id="pf_0_403_460" x1="62.036" y1="0" x2="62.036" y2="124.19" gradientUnits="userSpaceOnUse">
<stop stop-color="#99A0A9" stop-opacity="0.4"/>
<stop offset="1" stop-color="#FFFFFF" stop-opacity="0.4"/>
</linearGradient>
<filter id="filter403_461" x="-11.702446" y="-11.642937" width="91.202385" height="91.202385" filterUnits="userSpaceOnUse" color-interpolation-filters="sRGB">
<feFlood flood-opacity="0" result="BackgroundImageFix"/>
<feColorMatrix in="SourceAlpha" type="matrix" values="0 0 0 0 0 0 0 0 0 0 0 0 0 0 0 0 0 0 127 0" result="hardAlpha"/>
<feMorphology radius="0" operator="dilate" in="SourceAlpha" result="0dropshadow"/>
<feOffset dx="0" dy="8.732143"/>
<feGaussianBlur stdDeviation="8.732143"/>
<feComposite in2="hardAlpha" operator="out"/>
<feColorMatrix type="matrix" values="0 0 0 0 0.556863 0 0 0 0 0.607843 0 0 0 0 0.682353 0 0 0 0.2 0"/>
<feBlend mode="normal" in2="BackgroundImageFix" result="0dropshadow"/>
<feBlend mode="normal" in="SourceGraphic" in2="0dropshadow" result="shape"/>
<feColorMatrix in="SourceAlpha" type="matrix" values="0 0 0 0 0 0 0 0 0 0 0 0 0 0 0 0 0 0 127 0" result="hardAlpha"/>
<feMorphology radius="0" operator="erode" in="SourceAlpha" result="1innershadow"/>
<feOffset dx="0.970238" dy="0.970238"/>
<feGaussianBlur stdDeviation="0.970238"/>
<feComposite in2="hardAlpha" operator="arithmetic" k2="-1" k3="1"/>
<feColorMatrix type="matrix" values="0 0 0 0 1 0 0 0 0 1 0 0 0 0 1 0 0 0 0.5 0"/>
<feBlend mode="normal" in2="shape" result="1innershadow"/>
</filter>
<linearGradient id="pf_0_403_461" x1="3.196" y1="5.821" x2="122.072" y2="124.209" gradientUnits="userSpaceOnUse">
<stop stop-color="#779BE7"/>
<stop offset="1" stop-color="#A480CF"/>
</linearGradient>
<linearGradient id="pf_0_403_464" x1="11.312" y1="13.583" x2="113.792" y2="115.641" gradientUnits="userSpaceOnUse">
<stop stop-color="#779BE7"/>
<stop offset="1" stop-color="#A480CF"/>
</linearGradient>
</defs>
</svg>
