<svg width="60" height="60" viewBox="0 0 60 60" fill="none" xmlns="http://www.w3.org/2000/svg">
<circle cx="30" cy="30" r="30" fill="#FFD0D0"/>
<path d="M22.3242 30.7197C27.2979 30.7197 29.8438 26.6699 34.2158 26.6699C35.2363 26.6699 36.1064 26.8955 37.1377 27.4971C37.7178 27.8193 38.3408 27.6367 38.6846 27.1533C39.082 26.5732 38.9424 25.7783 38.2012 25.3379C36.9551 24.6289 35.6338 24.2744 34.2158 24.2744C29.1992 24.2744 26.6641 28.335 22.3242 28.335C21.3037 28.335 20.4443 28.0986 19.4023 27.5078C18.8223 27.1748 18.1885 27.3682 17.8555 27.8623C17.4688 28.4424 17.6084 29.2266 18.3389 29.6562C19.585 30.3652 20.9062 30.7197 22.3242 30.7197ZM36.4395 43.6318C39.168 43.6318 41.3486 41.4941 41.3486 38.8301C41.3486 37.3691 40.6182 35.9297 40.0166 34.8125L37.6104 30.3115C37.3525 29.8281 36.9443 29.5918 36.4395 29.5918C35.9346 29.5918 35.5264 29.8389 35.2793 30.3115L32.8623 34.8125C32.2607 35.9297 31.541 37.3691 31.541 38.8301C31.541 41.4941 33.7217 43.6318 36.4395 43.6318ZM22.335 36.4883C26.3203 36.4883 28.8662 33.7061 32.0889 32.8252C32.5723 31.9014 33.0771 30.9883 33.5713 30.0645C28.8984 30.4189 26.5244 34.0928 22.335 34.0928C21.3145 34.0928 20.4551 33.8564 19.4238 33.2656C18.833 32.9326 18.1992 33.126 17.877 33.6201C17.4795 34.2002 17.6191 34.9844 18.3496 35.4141C19.5957 36.123 20.917 36.4883 22.335 36.4883ZM22.3242 42.2461C25.4609 42.2461 27.6631 40.5596 29.9941 39.3994C29.876 38.583 29.9834 37.584 30.2734 36.6816C27.502 37.874 25.375 39.8506 22.3242 39.8506C21.3037 39.8506 20.4443 39.6143 19.4023 39.0234C18.8223 38.6904 18.1885 38.8838 17.8555 39.3779C17.4688 39.958 17.6084 40.7422 18.3389 41.1719C19.585 41.8809 20.9062 42.2461 22.3242 42.2461Z" fill="url(#paint0_linear_86_693)" fill-opacity="0.5"/>
<defs>
<linearGradient id="paint0_linear_86_693" x1="29.5" y1="18.6818" x2="29.5" y2="47" gradientUnits="userSpaceOnUse">
<stop stop-color="#985EE1"/>
<stop offset="1" stop-color="#F25656"/>
</linearGradient>
</defs>
</svg>
