<svg width="60" height="60" viewBox="0 0 60 60" fill="none" xmlns="http://www.w3.org/2000/svg">
<circle cx="30" cy="30" r="30" fill="url(#paint0_linear_86_697)" fill-opacity="0.2"/>
<path d="M30.0107 46.457C33.4912 46.457 36.3164 43.6855 36.3164 40.2051C36.3164 38.4756 35.6396 36.9717 34.3613 35.7578C34.1357 35.543 34.0928 35.4355 34.0928 35.1348L34.1035 26.1006C34.1035 23.4473 32.4492 21.6748 30.0107 21.6748C27.5508 21.6748 25.8965 23.4473 25.8965 26.1006L25.9072 35.1348C25.9072 35.4355 25.8643 35.5537 25.6494 35.7578C24.3496 36.9395 23.6836 38.4756 23.6836 40.2051C23.6836 43.6855 26.5088 46.457 30.0107 46.457ZM30.0107 44.126C27.8086 44.126 26.0361 42.3428 26.0361 40.1406C26.0361 38.7549 26.6807 37.6055 27.8086 36.8535C28.1309 36.6387 28.2598 36.4561 28.2598 36.0264V26.1865C28.2598 24.876 28.9688 24.0166 30.0107 24.0166C31.0312 24.0166 31.7402 24.876 31.7402 26.1865V36.0264C31.7402 36.4561 31.8691 36.6387 32.1914 36.8535C33.3193 37.6055 33.9639 38.7549 33.9639 40.1406C33.9639 42.3428 32.1914 44.126 30.0107 44.126ZM36.1982 26.2725H38.6045C39.0342 26.2725 39.3242 25.9502 39.3242 25.5635C39.3242 25.1768 39.0342 24.8545 38.6045 24.8545H36.1982C35.7578 24.8545 35.4785 25.1768 35.4785 25.5635C35.4785 25.9502 35.7578 26.2725 36.1982 26.2725ZM36.1982 29.1943H38.6045C39.0342 29.1943 39.3242 28.8721 39.3242 28.4854C39.3242 28.0986 39.0342 27.7764 38.6045 27.7764H36.1982C35.7578 27.7764 35.4785 28.0986 35.4785 28.4854C35.4785 28.8721 35.7578 29.1943 36.1982 29.1943ZM36.1982 32.1484H38.6045C39.0342 32.1484 39.3242 31.8262 39.3242 31.4395C39.3242 31.0527 39.0342 30.7305 38.6045 30.7305H36.1982C35.7578 30.7305 35.4785 31.0527 35.4785 31.4395C35.4785 31.8262 35.7578 32.1484 36.1982 32.1484ZM30 42.6758C31.3965 42.6758 32.5244 41.5479 32.5244 40.1406C32.5244 39.1631 31.9766 38.3574 31.1709 37.917C30.8379 37.7344 30.7197 37.6055 30.7197 37.1006V31.9229C30.7197 31.3965 30.3975 31.0635 30 31.0635C29.6025 31.0635 29.2803 31.3965 29.2803 31.9229V37.1006C29.2803 37.6055 29.1621 37.7344 28.8291 37.917C28.0234 38.3574 27.4756 39.1631 27.4756 40.1406C27.4756 41.5479 28.6035 42.6758 30 42.6758ZM36.1982 35.1025H38.6045C39.0342 35.1025 39.3242 34.7803 39.3242 34.3936C39.3242 34.0068 39.0342 33.6846 38.6045 33.6846H36.1982C35.7578 33.6846 35.4785 34.0068 35.4785 34.3936C35.4785 34.7803 35.7578 35.1025 36.1982 35.1025Z" fill="url(#paint1_linear_86_697)" fill-opacity="0.5"/>
<defs>
<linearGradient id="paint0_linear_86_697" x1="30" y1="-0.681818" x2="30" y2="60" gradientUnits="userSpaceOnUse">
<stop stop-color="#985EE1"/>
<stop offset="1" stop-color="#F25656"/>
</linearGradient>
<linearGradient id="paint1_linear_86_697" x1="30" y1="18.6818" x2="30" y2="47" gradientUnits="userSpaceOnUse">
<stop stop-color="#985EE1"/>
<stop offset="1" stop-color="#F25656"/>
</linearGradient>
</defs>
</svg>
