<svg width="552" height="276" viewBox="0 0 552 276" fill="none" xmlns="http://www.w3.org/2000/svg" xmlns:xlink="http://www.w3.org/1999/xlink">
<g filter="url(#filter83_418)">
<path d="M20,276C20,275.358 20.002,274.716 20.007,274.074L0.008,273.926C0.003,274.618 0,275.308 0,276L20,276ZM22.826,237.82C23.016,236.554 23.214,235.292 23.422,234.032L3.688,230.778C3.464,232.136 3.25,233.498 3.046,234.864L22.826,237.82ZM31.878,198.687C32.264,197.468 32.659,196.252 33.063,195.041L14.088,188.721C13.652,190.027 13.226,191.339 12.81,192.654L31.878,198.687ZM46.984,161.469C47.556,160.327 48.137,159.19 48.726,158.057L30.981,148.83C30.347,150.051 29.721,151.277 29.103,152.508L46.984,161.469ZM67.749,127.077C68.493,126.039 69.244,125.007 70.002,123.981L53.92,112.092C53.102,113.198 52.292,114.311 51.491,115.429L67.749,127.077ZM93.631,96.34C94.527,95.43 95.43,94.528 96.34,93.631L82.304,79.384C81.323,80.35 80.35,81.323 79.384,82.304L93.631,96.34ZM123.981,70.002C125.007,69.244 126.039,68.493 127.077,67.749L115.429,51.491C114.311,52.292 113.198,53.102 112.092,53.92L123.981,70.002ZM158.057,48.726C159.19,48.137 160.327,47.556 161.469,46.984L152.508,29.103C151.277,29.721 150.051,30.347 148.83,30.981L158.057,48.726ZM195.041,33.063C196.252,32.659 197.468,32.264 198.688,31.878L192.654,12.81C191.339,13.226 190.027,13.652 188.721,14.088L195.041,33.063ZM234.032,23.422C235.292,23.214 236.554,23.016 237.82,22.826L234.864,3.046C233.498,3.25 232.136,3.464 230.778,3.688L234.032,23.422ZM274.074,20.007C274.716,20.002 275.358,20 276,20L276,0C275.308,0 274.618,0.003 273.926,0.008L274.074,20.007ZM276,20C276.642,20 277.284,20.002 277.926,20.007L278.074,0.008C277.382,0.003 276.692,0 276,0L276,20ZM314.18,22.826C315.446,23.016 316.708,23.214 317.968,23.422L321.222,3.688C319.864,3.464 318.502,3.25 317.136,3.046L314.18,22.826ZM353.312,31.878C354.532,32.264 355.748,32.659 356.96,33.063L363.28,14.088C361.972,13.652 360.662,13.226 359.346,12.81L353.312,31.878ZM390.532,46.984C391.674,47.556 392.81,48.137 393.942,48.726L403.17,30.981C401.95,30.347 400.724,29.721 399.492,29.103L390.532,46.984ZM424.922,67.749C425.96,68.493 426.992,69.244 428.02,70.002L439.908,53.92C438.802,53.102 437.69,52.292 436.57,51.491L424.922,67.749ZM455.66,93.631C456.57,94.527 457.472,95.43 458.368,96.34L472.616,82.304C471.65,81.323 470.676,80.35 469.696,79.384L455.66,93.631ZM481.998,123.981C482.756,125.007 483.508,126.039 484.25,127.077L500.51,115.429C499.708,114.311 498.898,113.198 498.08,112.092L481.998,123.981ZM503.274,158.057C503.864,159.19 504.444,160.327 505.016,161.469L522.896,152.508C522.28,151.277 521.654,150.051 521.018,148.83L503.274,158.057ZM518.938,195.041C519.34,196.252 519.736,197.468 520.122,198.688L539.19,192.654C538.774,191.339 538.348,190.027 537.912,188.721L518.938,195.041ZM528.578,234.032C528.786,235.292 528.984,236.554 529.174,237.82L548.954,234.864C548.75,233.498 548.536,232.136 548.312,230.778L528.578,234.032ZM531.992,274.074C531.998,274.716 532,275.358 532,276L552,276C552,275.308 551.998,274.618 551.992,273.926L531.992,274.074Z" fill="#BAC4CF"/>
</g>
<defs>
<filter id="filter83_418" x="10" y="10" width="266" height="134" filterUnits="userSpaceOnUse" color-interpolation-filters="sRGB">
<feFlood flood-opacity="0" result="BackgroundImageFix"/>
<feBlend mode="normal" in="SourceGraphic" in2="BackgroundImageFix" result="shape"/>
<feColorMatrix in="SourceAlpha" type="matrix" values="0 0 0 0 0 0 0 0 0 0 0 0 0 0 0 0 0 0 127 0" result="hardAlpha"/>
<feMorphology radius="0" operator="erode" in="SourceAlpha" result="0innershadow"/>
<feOffset dx="0" dy="1"/>
<feGaussianBlur stdDeviation="0"/>
<feComposite in2="hardAlpha" operator="arithmetic" k2="-1" k3="1"/>
<feColorMatrix type="matrix" values="0 0 0 0 0.556863 0 0 0 0 0.607843 0 0 0 0 0.682353 0 0 0 0.5 0"/>
<feBlend mode="normal" in2="shape" result="0innershadow"/>
</filter>
</defs>
</svg>
