<svg width="19" height="26" viewBox="0 0 19 26" fill="none" xmlns="http://www.w3.org/2000/svg">
<path d="M5.03125 11.5898C5.03125 14.3721 6.91113 16.3057 9.5 16.3057C12.0889 16.3057 13.958 14.3721 13.958 11.5898V5.00488C13.958 2.24414 12.0889 0.289062 9.5 0.289062C6.91113 0.289062 5.03125 2.24414 5.03125 5.00488V11.5898ZM7.80273 11.6865V4.9082C7.80273 3.75879 8.42578 2.86719 9.5 2.86719C10.5742 2.86719 11.1973 3.74805 11.1973 4.9082V11.6865C11.1973 12.8467 10.5742 13.7275 9.5 13.7275C8.42578 13.7275 7.80273 12.8467 7.80273 11.6865ZM0.498047 12.2129C0.498047 17.0039 3.73145 20.1729 8.21094 20.6777V22.3643H4.34375C3.5918 22.3643 2.95801 22.9551 2.95801 23.707C2.95801 24.4375 3.5918 25.0498 4.34375 25.0498H14.6562C15.3975 25.0498 16.0312 24.4375 16.0312 23.707C16.0312 22.9551 15.3975 22.3643 14.6562 22.3643H10.7891V20.6777C15.2686 20.1729 18.4912 17.0039 18.4912 12.2129V10.1719C18.4912 9.44141 17.8789 8.86133 17.1377 8.86133C16.3857 8.86133 15.7627 9.44141 15.7627 10.1719V12.127C15.7627 15.7793 13.1309 18.1533 9.5 18.1533C5.8584 18.1533 3.2373 15.7793 3.2373 12.127V10.1719C3.2373 9.44141 2.61426 8.86133 1.8623 8.86133C1.11035 8.86133 0.498047 9.44141 0.498047 10.1719V12.2129Z" fill="url(#paint0_linear_128_394)"/>
<defs>
<linearGradient id="paint0_linear_128_394" x1="9.5" y1="-1" x2="9.5" y2="27" gradientUnits="userSpaceOnUse">
<stop stop-color="#985EE1"/>
<stop offset="1" stop-color="#F25656"/>
</linearGradient>
</defs>
</svg>
