<svg width="45" height="44" viewBox="0 0 45 44" fill="none" xmlns="http://www.w3.org/2000/svg">
<path d="M10.5276 16.9053C10.5276 25.166 15.5228 30.6016 23.139 30.6016C25.8997 30.6016 28.263 29.6777 29.9066 28.0986C30.3792 29.2266 30.6585 30.4941 31.0989 31.9121C31.2923 32.5352 31.765 32.8574 32.3235 32.8574C33.3226 32.8574 34.1282 31.9336 34.1282 30.8594C34.1282 29.5918 33.011 27.583 31.6575 25.6064C32.1194 24.5645 32.3665 23.4043 32.3665 22.1475C32.3665 17.3887 28.4993 13.9404 23.1819 13.9404C21.3773 13.9404 19.6048 14.4346 17.6927 14.4346C16.0921 14.4346 14.8138 13.9404 13.7396 12.7266C12.848 11.6846 11.2366 11.8457 10.8714 13.3496C10.5921 14.4238 10.5276 16.3145 10.5276 16.9053ZM16.8763 19.6982C17.4886 21.5674 19.5511 22.6309 22.2903 23.2646C25.8245 24.0703 27.2962 24.7256 28.5101 26.0039C27.3177 27.3467 25.4378 28.1416 23.139 28.1416C16.9085 28.1416 12.9876 23.8018 12.9876 16.9053C12.9876 16.5078 12.9984 16.0459 13.0413 15.7021C13.0521 15.4873 13.1702 15.4658 13.3206 15.5625C14.4915 16.4004 16.1566 16.8945 17.6927 16.8945C18.8851 16.8945 19.9593 16.7441 20.9153 16.6152C21.764 16.4863 22.4837 16.4004 23.1819 16.4004C27.1351 16.4004 29.9066 18.7852 29.9066 22.1475C29.9066 22.6309 29.8528 23.0928 29.7562 23.5225C28.2308 22.4268 26.0394 21.7393 23.0208 21.2881C20.6146 20.9229 18.971 20.4072 17.929 19.1182C17.4349 18.5488 16.6292 18.9463 16.8763 19.6982Z" fill="white"/>
</svg>
