<svg width="44" height="44" viewBox="0 0 44 44" fill="none" xmlns="http://www.w3.org/2000/svg">
<path d="M31.2816 19.0083C31.4716 19.672 32.1636 20.056 32.8273 19.866C33.491 19.6761 33.875 18.984 33.685 18.3203L31.2816 19.0083ZM29.65 13.7477L30.5502 12.8804L30.5492 12.8794L29.65 13.7477ZM23.8516 10.556L24.1042 9.33177L24.1019 9.33129L23.8516 10.556ZM17.3166 11.2227L16.8243 10.0737L16.823 10.0742L17.3166 11.2227ZM12.24 15.516L11.1895 14.8385L11.1894 14.8386L12.24 15.516ZM13.6466 30.2477L14.5505 29.3842L14.55 29.3837L13.6466 30.2477ZM27.9283 31.6993L28.64 32.7269L28.6403 32.7267L27.9283 31.6993ZM33.2561 26.9256C33.5118 26.2843 33.1992 25.5572 32.5579 25.3015C31.9167 25.0459 31.1895 25.3584 30.9339 25.9997L33.2561 26.9256ZM31.2734 18.3499C31.0997 19.018 31.5006 19.7004 32.1688 19.8741C32.8369 20.0477 33.5193 19.6468 33.693 18.9787L31.2734 18.3499ZM34.8763 14.4254C35.05 13.7572 34.6491 13.0748 33.9809 12.9011C33.3128 12.7275 32.6303 13.1284 32.4567 13.7965L34.8763 14.4254ZM32.1503 19.8691C32.8157 20.053 33.5042 19.6626 33.6881 18.9972C33.8719 18.3318 33.4816 17.6433 32.8161 17.4594L32.1503 19.8691ZM28.4011 16.2394C27.7357 16.0555 27.0472 16.4459 26.8634 17.1113C26.6795 17.7767 27.0699 18.4652 27.7353 18.6491L28.4011 16.2394ZM21.5833 18.6644C21.5833 17.974 21.0237 17.4144 20.3333 17.4144C19.643 17.4144 19.0833 17.974 19.0833 18.6644H21.5833ZM20.3333 23.6644H19.0833C19.0833 24.3547 19.643 24.9144 20.3333 24.9144V23.6644ZM25.3333 24.9144C26.0237 24.9144 26.5833 24.3547 26.5833 23.6644C26.5833 22.974 26.0237 22.4144 25.3333 22.4144V24.9144ZM33.685 18.3203C33.1004 16.278 32.024 14.4102 30.5502 12.8804L28.7498 14.6149C29.9401 15.8504 30.8094 17.3589 31.2816 19.0083L33.685 18.3203ZM30.5492 12.8794C28.807 11.075 26.5607 9.83857 24.1042 9.33177L23.5991 11.7802C25.5626 12.1853 27.3581 13.1736 28.7507 14.6159L30.5492 12.8794ZM24.1019 9.33129C21.657 8.83174 19.1179 9.09077 16.8243 10.0737L17.809 12.3716C19.6346 11.5893 21.6555 11.3831 23.6014 11.7807L24.1019 9.33129ZM16.823 10.0742C14.5133 11.067 12.552 12.7257 11.1895 14.8385L13.2905 16.1934C14.3836 14.4983 15.9572 13.1676 17.8102 12.3711L16.823 10.0742ZM11.1894 14.8386C7.88094 19.9693 8.5236 26.6997 12.7433 31.1116L14.55 29.3837C11.1297 25.8075 10.6088 20.3522 13.2905 16.1934L11.1894 14.8386ZM12.7427 31.1111C16.9228 35.4871 23.6649 36.1724 28.64 32.7269L27.2166 30.6717C23.2528 33.4169 17.881 32.8708 14.5505 29.3842L12.7427 31.1111ZM28.6403 32.7267C30.7155 31.2886 32.321 29.2709 33.2561 26.9256L30.9339 25.9997C30.1807 27.8886 28.8877 29.5137 27.2163 30.6719L28.6403 32.7267ZM33.693 18.9787L34.8763 14.4254L32.4567 13.7965L31.2734 18.3499L33.693 18.9787ZM32.8161 17.4594L28.4011 16.2394L27.7353 18.6491L32.1503 19.8691L32.8161 17.4594ZM19.0833 18.6644V23.6644H21.5833V18.6644H19.0833ZM20.3333 24.9144H25.3333V22.4144H20.3333V24.9144Z" fill="white"/>
</svg>
