<svg width="45" height="44" viewBox="0 0 45 44" fill="none" xmlns="http://www.w3.org/2000/svg">
<path fill-rule="evenodd" clip-rule="evenodd" d="M29.3333 23.6667C29.3333 27.3486 26.3486 30.3333 22.6667 30.3333C18.9848 30.3333 16 27.3486 16 23.6667C16 19.9848 18.9848 17 22.6667 17C24.4348 17 26.1305 17.7024 27.3807 18.9526C28.631 20.2029 29.3333 21.8986 29.3333 23.6667Z" stroke="white" stroke-width="2.5" stroke-linecap="round" stroke-linejoin="round"/>
<path d="M17.6667 13.25C18.357 13.25 18.9167 12.6903 18.9167 12C18.9167 11.3096 18.357 10.75 17.6667 10.75V13.25ZM27.6667 10.75C26.9763 10.75 26.4167 11.3096 26.4167 12C26.4167 12.6903 26.9763 13.25 27.6667 13.25V10.75ZM17.6667 10.75C16.9764 10.75 16.4167 11.3097 16.4167 12C16.4167 12.6904 16.9764 13.25 17.6667 13.25V10.75ZM27.6667 13.25C28.3571 13.25 28.9167 12.6904 28.9167 12C28.9167 11.3097 28.3571 10.75 27.6667 10.75V13.25ZM18.9167 12C18.9167 11.3096 18.3571 10.75 17.6667 10.75C16.9764 10.75 16.4167 11.3096 16.4167 12H18.9167ZM16.4167 13.6666C16.4167 14.357 16.9764 14.9166 17.6667 14.9166C18.3571 14.9166 18.9167 14.357 18.9167 13.6666H16.4167ZM16.4167 12C16.4167 12.6904 16.9764 13.25 17.6667 13.25C18.3571 13.25 18.9167 12.6904 18.9167 12H16.4167ZM18.9167 8.66669C18.9167 7.97633 18.3571 7.41669 17.6667 7.41669C16.9764 7.41669 16.4167 7.97633 16.4167 8.66669H18.9167ZM28.9167 12C28.9167 11.3096 28.3571 10.75 27.6667 10.75C26.9764 10.75 26.4167 11.3096 26.4167 12H28.9167ZM26.4167 13.6666C26.4167 14.357 26.9764 14.9166 27.6667 14.9166C28.3571 14.9166 28.9167 14.357 28.9167 13.6666H26.4167ZM26.4167 12C26.4167 12.6904 26.9764 13.25 27.6667 13.25C28.3571 13.25 28.9167 12.6904 28.9167 12H26.4167ZM28.9167 8.66669C28.9167 7.97633 28.3571 7.41669 27.6667 7.41669C26.9764 7.41669 26.4167 7.97633 26.4167 8.66669H28.9167ZM22.9649 21.7618C22.9649 21.0714 22.4053 20.5118 21.7149 20.5118C21.0246 20.5118 20.4649 21.0714 20.4649 21.7618H22.9649ZM21.7149 24.6185H20.4649C20.4649 25.3088 21.0246 25.8685 21.7149 25.8685V24.6185ZM24.5716 25.8685C25.2619 25.8685 25.8216 25.3088 25.8216 24.6185C25.8216 23.9281 25.2619 23.3685 24.5716 23.3685V25.8685ZM17.6667 10.75C13.2944 10.75 9.75 14.2944 9.75 18.6666H12.25C12.25 15.6751 14.6751 13.25 17.6667 13.25V10.75ZM9.75 18.6666V28.6666H12.25V18.6666H9.75ZM9.75 28.6666C9.75 33.0389 13.2944 36.5833 17.6667 36.5833V34.0833C14.6751 34.0833 12.25 31.6582 12.25 28.6666H9.75ZM17.6667 36.5833H27.6667V34.0833H17.6667V36.5833ZM27.6667 36.5833C32.0389 36.5833 35.5833 33.0389 35.5833 28.6666H33.0833C33.0833 31.6582 30.6582 34.0833 27.6667 34.0833V36.5833ZM35.5833 28.6666V18.6666H33.0833V28.6666H35.5833ZM35.5833 18.6666C35.5833 14.2944 32.0389 10.75 27.6667 10.75V13.25C30.6582 13.25 33.0833 15.6751 33.0833 18.6666H35.5833ZM17.6667 13.25H27.6667V10.75H17.6667V13.25ZM16.4167 12V13.6666H18.9167V12H16.4167ZM18.9167 12V8.66669H16.4167V12H18.9167ZM26.4167 12V13.6666H28.9167V12H26.4167ZM28.9167 12V8.66669H26.4167V12H28.9167ZM20.4649 21.7618V24.6185H22.9649V21.7618H20.4649ZM21.7149 25.8685H24.5716V23.3685H21.7149V25.8685Z" fill="white"/>
</svg>
