<svg width="44" height="44" viewBox="0 0 44 44" fill="none" xmlns="http://www.w3.org/2000/svg" xmlns:xlink="http://www.w3.org/1999/xlink">
<path d="M22,11.031C19.831,11.031 17.71,11.675 15.906,12.88C14.102,14.085 12.696,15.798 11.866,17.802C11.036,19.807 10.819,22.012 11.242,24.14C11.665,26.268 12.71,28.222 14.244,29.756C15.778,31.29 17.732,32.335 19.86,32.758C21.988,33.181 24.193,32.964 26.198,32.134C28.202,31.304 29.915,29.898 31.12,28.094C32.326,26.29 32.969,24.169 32.969,22C32.969,19.091 31.813,16.301 29.756,14.244C27.699,12.187 24.909,11.031 22,11.031ZM22,30.531C20.313,30.531 18.663,30.031 17.26,29.094C15.857,28.156 14.764,26.824 14.118,25.265C13.472,23.706 13.303,21.991 13.633,20.336C13.962,18.681 14.774,17.161 15.967,15.968C17.161,14.774 18.681,13.962 20.336,13.633C21.991,13.304 23.706,13.472 25.265,14.118C26.824,14.764 28.156,15.857 29.094,17.26C30.031,18.663 30.531,20.313 30.531,22C30.531,24.263 29.632,26.433 28.033,28.033C26.433,29.632 24.263,30.531 22,30.531ZM43.369,26.794L40.261,22.65C40.281,22.203 40.261,21.695 40.261,21.35L43.369,17.206C43.481,17.057 43.558,16.885 43.593,16.702C43.628,16.519 43.621,16.33 43.572,16.15C43.07,14.309 42.333,12.541 41.378,10.889C41.287,10.729 41.161,10.591 41.01,10.486C40.859,10.38 40.686,10.31 40.505,10.28L35.386,9.548C35.081,9.223 34.777,8.919 34.452,8.614L33.72,3.495C33.694,3.315 33.627,3.143 33.525,2.992C33.423,2.841 33.289,2.714 33.131,2.622C31.469,1.674 29.695,0.937 27.85,0.428C27.67,0.379 27.481,0.372 27.298,0.407C27.115,0.442 26.943,0.519 26.794,0.631L22.67,3.739C22.224,3.726 21.777,3.726 21.33,3.739L17.206,0.631C17.057,0.519 16.885,0.442 16.702,0.407C16.519,0.372 16.33,0.379 16.15,0.428C14.309,0.93 12.541,1.667 10.889,2.622C10.729,2.713 10.591,2.839 10.486,2.99C10.38,3.141 10.31,3.314 10.28,3.495L9.548,8.614C9.223,8.919 8.919,9.223 8.614,9.548L3.495,10.28C3.315,10.306 3.143,10.373 2.992,10.475C2.84,10.577 2.714,10.711 2.622,10.869C1.674,12.531 0.937,14.305 0.428,16.15C0.379,16.33 0.372,16.519 0.407,16.702C0.442,16.885 0.519,17.057 0.631,17.206L3.739,21.35C3.719,21.797 3.739,22.305 3.739,22.65L0.631,26.794C0.519,26.943 0.442,27.115 0.407,27.298C0.372,27.481 0.379,27.67 0.428,27.85C0.93,29.691 1.667,31.459 2.622,33.111C2.709,33.274 2.834,33.414 2.986,33.52C3.138,33.626 3.312,33.695 3.495,33.72L8.614,34.452L9.548,35.386L10.28,40.505C10.31,40.686 10.38,40.859 10.486,41.01C10.591,41.161 10.729,41.287 10.889,41.378C12.543,42.329 14.311,43.066 16.15,43.572L16.475,43.613C16.739,43.613 16.995,43.527 17.206,43.369L21.33,40.261L22.67,40.261L26.794,43.369C26.943,43.481 27.115,43.558 27.298,43.593C27.481,43.628 27.67,43.621 27.85,43.572C29.696,43.067 31.471,42.329 33.131,41.378C33.289,41.286 33.423,41.16 33.525,41.008C33.627,40.857 33.694,40.685 33.72,40.505L34.452,35.386C34.777,35.081 35.122,34.716 35.366,34.452L40.505,33.72C40.685,33.694 40.857,33.627 41.008,33.525C41.16,33.423 41.286,33.289 41.378,33.131C42.326,31.469 43.063,29.695 43.572,27.85C43.621,27.67 43.628,27.481 43.593,27.298C43.558,27.115 43.481,26.943 43.369,26.794L43.369,26.794ZM39.55,31.384L34.614,32.095C34.339,32.142 34.085,32.269 33.883,32.461C33.639,32.745 32.888,33.517 32.502,33.863C32.283,34.058 32.139,34.324 32.095,34.614L31.384,39.55C30.235,40.175 29.023,40.679 27.769,41.053L23.767,38.047C23.537,37.883 23.257,37.804 22.975,37.824L21.025,37.824C20.743,37.804 20.463,37.883 20.233,38.047L16.231,41.053C14.974,40.688 13.761,40.184 12.616,39.55L11.905,34.614C11.861,34.324 11.717,34.058 11.498,33.863C11.015,33.44 10.56,32.985 10.137,32.502C9.942,32.283 9.676,32.139 9.386,32.095L4.45,31.384C3.825,30.235 3.321,29.023 2.947,27.769L5.953,23.767C6.114,23.542 6.2,23.272 6.197,22.995C6.177,22.63 6.156,21.553 6.177,21.025C6.196,20.743 6.117,20.463 5.953,20.233L2.947,16.231C3.312,14.974 3.816,13.761 4.45,12.616L9.386,11.905C9.676,11.861 9.942,11.717 10.137,11.498C10.56,11.015 11.015,10.56 11.498,10.138C11.717,9.942 11.861,9.676 11.905,9.386L12.616,4.45C13.765,3.825 14.977,3.321 16.231,2.947L20.233,5.953C20.463,6.117 20.743,6.196 21.025,6.177C21.675,6.163 22.325,6.163 22.975,6.177C23.257,6.196 23.537,6.117 23.767,5.953L27.769,2.947C29.026,3.312 30.239,3.816 31.384,4.45L32.095,9.386C32.139,9.676 32.283,9.942 32.502,10.138C32.985,10.56 33.44,11.015 33.863,11.498C34.058,11.717 34.324,11.861 34.614,11.905L39.55,12.616C40.175,13.765 40.679,14.977 41.053,16.231L38.047,20.233C37.886,20.458 37.8,20.728 37.803,21.005C37.824,21.37 37.844,22.447 37.824,22.975C37.804,23.257 37.883,23.537 38.047,23.767L41.053,27.769C40.688,29.026 40.184,30.239 39.55,31.384L39.55,31.384Z" fill="#000000"/>
</svg>
