<svg width="64" height="64" viewBox="0 0 64 64" fill="none" xmlns="http://www.w3.org/2000/svg">
  <g filter="url(#filter0_d_124_190)">
    <circle cx="32" cy="32" r="32" fill="url(#paint0_linear_124_190)" fill-opacity="0.4" shape-rendering="crispEdges"/>
  </g>
  <circle cx="32" cy="32" r="28.85" fill="url(#paint1_linear_124_190)" stroke="url(#paint2_linear_124_190)" stroke-width="0.3"/>
  <mask id="mask0_124_190" style="mask-type:alpha" maskUnits="userSpaceOnUse" x="3" y="3" width="58" height="58">
    <circle cx="32" cy="32" r="29" fill="url(#paint3_linear_124_190)"/>
  </mask>
  <g mask="url(#mask0_124_190)">
    <g filter="url(#filter1_f_124_190)">
      <path d="M61 32C61 48.0163 48.0163 61 32 61C15.9837 61 3 48.0163 3 32C3 15.9837 15.9837 3 32 3C48.0163 3 61 15.9837 61 32ZM7.35 32C7.35 45.6138 18.3862 56.65 32 56.65C45.6138 56.65 56.65 45.6138 56.65 32C56.65 18.3862 45.6138 7.35 32 7.35C18.3862 7.35 7.35 18.3862 7.35 32Z" fill="url(#paint4_linear_124_190)"/>
    </g>
  </g>
  <defs>
    <filter id="filter0_d_124_190" x="0" y="0" width="64" height="64" filterUnits="userSpaceOnUse" color-interpolation-filters="sRGB">
      <feFlood flood-opacity="0" result="BackgroundImageFix"/>
      <feColorMatrix in="SourceAlpha" type="matrix" values="0 0 0 0 0 0 0 0 0 0 0 0 0 0 0 0 0 0 127 0" result="hardAlpha"/>
      <feOffset dx="4" dy="4"/>
      <feGaussianBlur stdDeviation="10"/>
      <feComposite in2="hardAlpha" operator="out"/>
      <feColorMatrix type="matrix" values="0 0 0 0 0.556863 0 0 0 0 0.607843 0 0 0 0 0.682353 0 0 0 0.1 0"/>
      <feBlend mode="normal" in2="BackgroundImageFix" result="effect1_dropShadow_124_190"/>
      <feBlend mode="normal" in="SourceGraphic" in2="effect1_dropShadow_124_190" result="shape"/>
    </filter>
    <filter id="filter1_f_124_190" x="1" y="1" width="62" height="62" filterUnits="userSpaceOnUse" color-interpolation-filters="sRGB">
      <feFlood flood-opacity="0" result="BackgroundImageFix"/>
      <feBlend mode="normal" in="SourceGraphic" in2="BackgroundImageFix" result="shape"/>
      <feGaussianBlur stdDeviation="1" result="effect1_foregroundBlur_124_190"/>
    </filter>
    <linearGradient id="paint0_linear_124_190" x1="32" y1="0" x2="32" y2="64" gradientUnits="userSpaceOnUse">
      <stop stop-color="#99A0A9"/>
      <stop offset="1" stop-color="white"/>
    </linearGradient>
    <linearGradient id="paint1_linear_124_190" x1="14.6" y1="4.2833" x2="46.0167" y2="51.65" gradientUnits="userSpaceOnUse">
      <stop stop-color="#F5F5F9"/>
      <stop offset="1" stop-color="#DADFE7"/>
    </linearGradient>
    <linearGradient id="paint2_linear_124_190" x1="13.6333" y1="10.5667" x2="44.5667" y2="53.1" gradientUnits="userSpaceOnUse">
      <stop stop-opacity="0.3"/>
      <stop offset="1" stop-opacity="0.4"/>
    </linearGradient>
    <linearGradient id="paint3_linear_124_190" x1="14.6" y1="4.2833" x2="46.0167" y2="51.65" gradientUnits="userSpaceOnUse">
      <stop stop-color="#D99AFA"/>
      <stop offset="1" stop-color="#BA3D4F"/>
    </linearGradient>
    <linearGradient id="paint4_linear_124_190" x1="14.6" y1="4.2833" x2="46.0167" y2="51.65" gradientUnits="userSpaceOnUse">
      <stop stop-color="white"/>
      <stop offset="1" stop-color="#CBD0D9"/>
    </linearGradient>
  </defs>
</svg>
