<svg width="24" height="22" viewBox="0 0 24 22" fill="none" xmlns="http://www.w3.org/2000/svg"><g filter="url(#a)"><path d="M.194 5.905c0 8.261 4.995 13.697 12.612 13.697 2.76 0 5.124-.924 6.767-2.503.473 1.128.752 2.395 1.193 3.813.193.623.666.945 1.224.945 1 0 1.805-.923 1.805-1.998 0-1.267-1.117-3.276-2.47-5.253a8.5 8.5 0 0 0 .708-3.458c0-4.76-3.867-8.208-9.184-8.208-1.805 0-3.578.495-5.49.495-1.6 0-2.879-.495-3.953-1.708C2.515.685.903.846.538 2.35.258 3.424.194 5.314.194 5.905m6.349 2.793c.612 1.87 2.675 2.933 5.414 3.567 3.534.805 5.006 1.46 6.22 2.739-1.193 1.343-3.072 2.138-5.371 2.138-6.23 0-10.152-4.34-10.152-11.237 0-.397.011-.86.054-1.203.01-.215.129-.236.28-.14 1.17.838 2.835 1.333 4.371 1.333 1.193 0 2.267-.15 3.223-.28.849-.129 1.568-.215 2.267-.215 3.953 0 6.724 2.385 6.724 5.748 0 .483-.053.945-.15 1.375-1.525-1.096-3.717-1.784-6.735-2.235-2.407-.365-4.05-.88-5.092-2.17-.494-.57-1.3-.172-1.053.58" fill="#30DB5B"/></g><defs><filter id="a" x=".194" y=".685" width="23.601" height="22.673" filterUnits="userSpaceOnUse" color-interpolation-filters="sRGB"><feFlood flood-opacity="0" result="BackgroundImageFix"/><feBlend in="SourceGraphic" in2="BackgroundImageFix" result="shape"/><feColorMatrix in="SourceAlpha" values="0 0 0 0 0 0 0 0 0 0 0 0 0 0 0 0 0 0 127 0" result="hardAlpha"/><feOffset dy="1.5"/><feGaussianBlur stdDeviation=".75"/><feComposite in2="hardAlpha" operator="arithmetic" k2="-1" k3="1"/><feColorMatrix values="0 0 0 0 0 0 0 0 0 0 0 0 0 0 0 0 0 0 0.6 0"/><feBlend mode="overlay" in2="shape" result="effect1_innerShadow_402_37"/></filter></defs></svg>