<svg width="134" height="114" viewBox="0 0 134 114" fill="none" xmlns="http://www.w3.org/2000/svg" xmlns:xlink="http://www.w3.org/1999/xlink">
<path d="M12.667,114L12.667,100.667C9,100.667 5.862,99.362 3.253,96.753C0.64,94.14 -0.667,91 -0.667,87.333L-0.667,14C-0.667,10.333 0.64,7.196 3.253,4.587C5.862,1.973 9,0.667 12.667,0.667L119.333,0.667C123,0.667 126.14,1.973 128.753,4.587C131.362,7.196 132.667,10.333 132.667,14L132.667,87.333C132.667,91 131.362,94.14 128.753,96.753C126.14,99.362 123,100.667 119.333,100.667L119.333,114L112.667,114L108.333,100.667L23.833,100.667L19.333,114L12.667,114ZM12.667,87.333L119.333,87.333L119.333,14L12.667,14L12.667,87.333Z" fill="#3C3C43" fill-opacity="0.3"/>
</svg>
