<svg width="52" height="52" viewBox="0 0 52 52" fill="none" xmlns="http://www.w3.org/2000/svg" xmlns:xlink="http://www.w3.org/1999/xlink">
<path d="M43.57,19.6C43.939,20.887 45.282,21.633 46.57,21.264C47.857,20.895 48.603,19.552 48.234,18.265L43.57,19.6ZM40.404,9.391L42.151,7.708L42.149,7.707L40.404,9.391ZM29.152,3.198L29.643,0.822L29.638,0.822L29.152,3.198ZM16.472,4.492L15.516,2.262L15.514,2.263L16.472,4.492ZM6.62,12.823L4.582,11.508L4.582,11.508L6.62,12.823ZM9.35,41.409L11.104,39.734L11.103,39.733L9.35,41.409ZM37.063,44.226L38.444,46.22L38.445,46.22L37.063,44.226ZM47.402,34.963C47.898,33.719 47.291,32.308 46.047,31.811C44.802,31.315 43.392,31.922 42.895,33.166L47.402,34.963ZM43.554,18.322C43.217,19.618 43.995,20.943 45.292,21.28C46.588,21.617 47.912,20.839 48.249,19.542L43.554,18.322ZM50.546,10.706C50.883,9.41 50.105,8.086 48.808,7.749C47.512,7.412 46.187,8.19 45.85,9.486L50.546,10.706ZM45.256,21.27C46.547,21.627 47.883,20.869 48.24,19.578C48.597,18.287 47.839,16.951 46.548,16.594L45.256,21.27ZM37.981,14.227C36.69,13.87 35.354,14.627 34.997,15.918C34.64,17.21 35.397,18.546 36.689,18.903L37.981,14.227ZM24.751,18.932C24.751,17.592 23.665,16.507 22.325,16.507C20.986,16.507 19.9,17.592 19.9,18.932L24.751,18.932ZM22.325,28.635L19.9,28.635C19.9,29.974 20.986,31.06 22.325,31.06L22.325,28.635ZM32.028,31.06C33.367,31.06 34.453,29.974 34.453,28.635C34.453,27.295 33.367,26.209 32.028,26.209L32.028,31.06ZM48.234,18.265C47.1,14.302 45.011,10.677 42.151,7.708L38.657,11.074C40.967,13.472 42.654,16.399 43.57,19.6L48.234,18.265ZM42.149,7.707C38.768,4.205 34.409,1.806 29.643,0.822L28.662,5.574C32.473,6.36 35.957,8.278 38.659,11.076L42.149,7.707ZM29.638,0.822C24.894,-0.148 19.967,0.355 15.516,2.262L17.427,6.721C20.969,5.203 24.891,4.803 28.667,5.575L29.638,0.822ZM15.514,2.263C11.032,4.19 7.226,7.408 4.582,11.508L8.659,14.137C10.78,10.848 13.834,8.266 17.429,6.72L15.514,2.263ZM4.582,11.508C-1.838,21.464 -0.591,34.525 7.597,43.086L11.103,39.733C4.466,32.793 3.455,22.207 8.659,14.137L4.582,11.508ZM7.596,43.085C15.707,51.576 28.79,52.906 38.444,46.22L35.682,42.232C27.99,47.559 17.567,46.5 11.104,39.734L7.596,43.085ZM38.445,46.22C42.472,43.429 45.587,39.514 47.402,34.963L42.895,33.166C41.434,36.832 38.925,39.985 35.682,42.233L38.445,46.22ZM48.249,19.542L50.546,10.706L45.85,9.486L43.554,18.322L48.249,19.542ZM46.548,16.594L37.981,14.227L36.689,18.903L45.256,21.27L46.548,16.594ZM19.9,18.932L19.9,28.635L24.751,28.635L24.751,18.932L19.9,18.932ZM22.325,31.06L32.028,31.06L32.028,26.209L22.325,26.209L22.325,31.06Z" fill="#3C3C43" fill-opacity="0.3"/>
</svg>
