<svg width="24" height="14" viewBox="0 0 24 14" fill="none" xmlns="http://www.w3.org/2000/svg" xmlns:xlink="http://www.w3.org/1999/xlink">
<path d="M12,13.95C11.733,13.95 11.475,13.9 11.226,13.8C10.975,13.7 10.767,13.567 10.6,13.4L1.4,4.2C1.033,3.833 0.85,3.367 0.85,2.8C0.85,2.233 1.033,1.767 1.4,1.4C1.767,1.033 2.233,0.85 2.8,0.85C3.367,0.85 3.833,1.033 4.2,1.4L12,9.2L19.8,1.4C20.167,1.033 20.633,0.85 21.2,0.85C21.767,0.85 22.233,1.033 22.6,1.4C22.967,1.767 23.15,2.233 23.15,2.8C23.15,3.367 22.967,3.833 22.6,4.2L13.4,13.4C13.2,13.6 12.983,13.741 12.75,13.824C12.517,13.908 12.267,13.95 12,13.95L12,13.95Z" fill="#3C3C43" fill-opacity="0.6"/>
</svg>
