<svg width="58" height="56" viewBox="0 0 58 56" fill="none" xmlns="http://www.w3.org/2000/svg" xmlns:xlink="http://www.w3.org/1999/xlink">
<path d="M48,20C45.939,20.055 43.939,19.291 42.44,17.875C40.941,16.459 40.063,14.507 40,12.446C40.037,10.974 40.49,9.543 41.306,8.318L46.34,0.828C46.534,0.57 46.784,0.361 47.072,0.218C47.36,0.074 47.678,-0.001 48,-0.001C48.322,-0.001 48.64,0.074 48.928,0.218C49.216,0.361 49.467,0.57 49.66,0.828L54.63,8.22C55.48,9.47 55.955,10.936 56,12.446C55.937,14.507 55.059,16.459 53.56,17.875C52.061,19.291 50.062,20.055 48,20L48,20ZM48,5.526L44.688,10.452C44.274,11.038 44.036,11.73 44,12.446C44.116,13.425 44.588,14.328 45.325,14.983C46.062,15.638 47.014,16 48,16C48.986,16 49.938,15.638 50.675,14.983C51.413,14.328 51.884,13.425 52,12.446C51.955,11.691 51.695,10.964 51.25,10.352L48,5.526ZM43,56L13,56C9.778,56.003 6.67,54.81 4.279,52.65C1.888,50.491 0.384,47.52 0.06,44.314C-0.264,41.109 0.615,37.897 2.525,35.303C4.436,32.709 7.243,30.917 10.4,30.276C11.252,26.24 13.466,22.619 16.67,20.02C19.875,17.422 23.875,16.004 28,16.004C32.126,16.004 36.126,17.422 39.33,20.02C42.534,22.619 44.748,26.24 45.6,30.276C48.758,30.917 51.564,32.709 53.475,35.303C55.385,37.897 56.264,41.109 55.94,44.314C55.616,47.52 54.113,50.491 51.721,52.65C49.33,54.81 46.222,56.003 43,56L43,56ZM28,20C24.585,20.003 21.29,21.254 18.733,23.518C16.176,25.781 14.535,28.901 14.118,32.29L13.918,33.914L12.288,34.042C9.967,34.219 7.804,35.289 6.256,37.028C4.707,38.766 3.894,41.038 3.986,43.364C4.078,45.691 5.069,47.891 6.75,49.501C8.431,51.112 10.672,52.008 13,52L43,52C45.328,52.008 47.569,51.112 49.25,49.501C50.931,47.891 51.922,45.691 52.014,43.364C52.107,41.038 51.293,38.766 49.744,37.028C48.196,35.289 46.034,34.219 43.712,34.042L42.082,33.914L41.884,32.29C41.466,28.901 39.824,25.781 37.267,23.518C34.711,21.255 31.415,20.004 28,20L28,20Z" fill="#FFFFFF"/>
</svg>
