<svg width="80" height="134" viewBox="0 0 80 134" fill="none" xmlns="http://www.w3.org/2000/svg" xmlns:xlink="http://www.w3.org/1999/xlink">
<path d="M13.333,-0.667C5.933,-0.667 0,5.267 0,12.667L0,92.667C0,100.067 5.933,106 13.333,106L20,106L20,119.333L0,119.333L0,132.667L20,132.667C27.4,132.667 33.333,126.733 33.333,119.333L33.333,106L46.667,106L46.667,119.333C46.667,126.733 52.6,132.667 60,132.667L80,132.667L80,119.333L60,119.333L60,106L66.667,106C74.067,106 80,100.067 80,92.667L80,12.667C80,5.267 74.067,-0.667 66.667,-0.667L13.333,-0.667ZM40,19.133C43.536,19.133 46.928,20.538 49.428,23.039C51.929,25.539 53.333,28.931 53.333,32.467C53.333,36.003 51.929,39.394 49.428,41.895C46.928,44.395 43.536,45.8 40,45.8C36.464,45.8 33.072,44.395 30.572,41.895C28.071,39.394 26.667,36.003 26.667,32.467C26.667,28.931 28.071,25.539 30.572,23.039C33.072,20.538 36.464,19.133 40,19.133ZM26.667,82.667L53.333,82.667L53.333,92.667L26.667,92.667L26.667,82.667Z" fill="url(#pf_0_403_536)"/>
<defs>
<linearGradient id="pf_0_403_536" x1="-1.824" y1="-0.667" x2="82.675" y2="139.585" gradientUnits="userSpaceOnUse">
<stop stop-color="#779BE7"/>
<stop offset="1" stop-color="#A480CF"/>
</linearGradient>
</defs>
</svg>
