<svg width="38" height="62" viewBox="0 0 38 62" fill="none" xmlns="http://www.w3.org/2000/svg" xmlns:xlink="http://www.w3.org/1999/xlink">
<path d="M19,39.016L19,17.252L11,17.252L11,39.012C8.194,40.468 6.252,43.372 6.252,46.752C6.286,49.05 7.224,51.242 8.861,52.855C10.498,54.468 12.704,55.372 15.002,55.373C17.3,55.373 19.506,54.469 21.144,52.857C22.781,51.244 23.719,49.052 23.754,46.754C23.754,43.374 21.814,40.47 19.002,39.018L19,39.016ZM25,10.496C25,4.984 20.512,0.496 15,0.496C9.488,0.496 5,4.986 5,10.496L5,35.95C3.502,37.322 2.305,38.99 1.488,40.85C0.67,42.709 0.248,44.719 0.25,46.75C0.25,54.882 6.87,61.504 15.002,61.504C23.134,61.504 29.752,54.884 29.752,46.75C29.752,42.578 27.996,38.69 25.002,35.946L25.002,10.5L25,10.496ZM25.75,46.756C25.746,49.605 24.612,52.337 22.597,54.351C20.582,56.365 17.849,57.498 15,57.5C12.151,57.496 9.42,56.363 7.406,54.348C5.391,52.334 4.258,49.603 4.254,46.754C4.254,43.164 6.046,39.868 9.006,37.878L9.006,10.5C9.006,7.194 11.692,4.5 15,4.5C18.308,4.5 21,7.192 21,10.5L21,37.88C22.461,38.854 23.659,40.173 24.488,41.721C25.316,43.269 25.75,44.998 25.75,46.754L25.75,46.756ZM28.17,17.252L37.17,22.448L37.17,12.06L28.17,17.252L28.17,17.252Z" fill="#FFFFFF"/>
</svg>
