<svg width="6" height="20" viewBox="0 0 6 20" fill="none" xmlns="http://www.w3.org/2000/svg" xmlns:xlink="http://www.w3.org/1999/xlink">
<path d="M2,14.667C2.619,14.667 3.212,14.913 3.65,15.35C4.087,15.788 4.333,16.381 4.333,17C4.333,17.619 4.087,18.212 3.65,18.65C3.212,19.088 2.619,19.333 2,19.333C1.381,19.333 0.788,19.088 0.35,18.65C-0.088,18.212 -0.333,17.619 -0.333,17C-0.333,16.381 -0.088,15.788 0.35,15.35C0.788,14.913 1.381,14.667 2,14.667ZM2,7.667C2.619,7.667 3.212,7.913 3.65,8.35C4.087,8.788 4.333,9.381 4.333,10C4.333,10.619 4.087,11.212 3.65,11.65C3.212,12.088 2.619,12.333 2,12.333C1.381,12.333 0.788,12.088 0.35,11.65C-0.088,11.212 -0.333,10.619 -0.333,10C-0.333,9.381 -0.088,8.788 0.35,8.35C0.788,7.913 1.381,7.667 2,7.667M2,0.667C2.619,0.667 3.212,0.912 3.65,1.35C4.087,1.788 4.333,2.381 4.333,3C4.333,3.619 4.087,4.212 3.65,4.65C3.212,5.088 2.619,5.333 2,5.333C1.381,5.333 0.788,5.088 0.35,4.65C-0.088,4.212 -0.333,3.619 -0.333,3C-0.333,2.381 -0.088,1.788 0.35,1.35C0.788,0.912 1.381,0.667 2,0.667Z" fill="#FFFFFF"/>
</svg>
