<svg width="32" height="26" viewBox="0 0 32 26" fill="none" xmlns="http://www.w3.org/2000/svg" xmlns:xlink="http://www.w3.org/1999/xlink">
<path d="M17.95,7.205C22.897,7.205 25.703,10.491 26.111,14.46L26.236,14.46C29.419,14.46 32,17.044 32,20.23C32,23.417 29.419,26 26.236,26L9.663,26C6.48,26 3.899,23.417 3.899,20.23C3.899,17.044 6.48,14.46 9.664,14.46L9.789,14.46C10.199,10.465 13.002,7.205 17.95,7.205L17.95,7.205ZM3.565,13.624C3.735,13.919 3.789,14.267 3.717,14.6C3.645,14.933 3.452,15.227 3.176,15.425L3.065,15.496L2.051,16.084C1.747,16.261 1.387,16.313 1.045,16.23C0.704,16.148 0.407,15.936 0.217,15.64C0.027,15.343 -0.042,14.985 0.025,14.638C0.091,14.292 0.288,13.985 0.574,13.781L0.685,13.709L1.7,13.122C2.013,12.94 2.386,12.891 2.736,12.985C3.086,13.079 3.384,13.308 3.565,13.623L3.565,13.624ZM14.6,6.15C11.633,7.106 9.519,9.354 8.652,12.356L8.579,12.622L8.488,12.995L8.166,13.055C7.232,13.253 6.345,13.634 5.558,14.176C4.839,12.942 4.57,11.496 4.796,10.084C5.021,8.673 5.728,7.383 6.795,6.436C7.862,5.489 9.223,4.943 10.646,4.89C12.07,4.838 13.467,5.283 14.6,6.149L14.6,6.15ZM1.954,5.623L2.057,5.667L3.119,6.163C3.44,6.312 3.692,6.579 3.821,6.91C3.949,7.241 3.945,7.609 3.809,7.937C3.673,8.265 3.415,8.527 3.09,8.667C2.765,8.808 2.399,8.817 2.067,8.692L1.964,8.648L0.903,8.152C0.584,8.002 0.335,7.734 0.208,7.404C0.081,7.074 0.085,6.708 0.221,6.382C0.357,6.056 0.613,5.795 0.936,5.653C1.259,5.512 1.624,5.501 1.954,5.623L1.954,5.623ZM16.872,1.109C17.153,1.307 17.35,1.603 17.423,1.939C17.497,2.275 17.441,2.627 17.269,2.924L17.208,3.019L16.536,3.981C16.335,4.273 16.028,4.475 15.682,4.545C15.335,4.614 14.975,4.546 14.677,4.355C14.379,4.163 14.167,3.863 14.085,3.518C14.003,3.172 14.058,2.809 14.237,2.503L14.298,2.409L14.97,1.445C15.073,1.298 15.203,1.172 15.355,1.075C15.506,0.978 15.675,0.913 15.852,0.881C16.028,0.85 16.21,0.854 16.385,0.893C16.56,0.932 16.726,1.005 16.873,1.109L16.872,1.109ZM8.839,0.78L8.889,0.902L9.29,2.007C9.411,2.338 9.4,2.704 9.26,3.027C9.119,3.351 8.86,3.607 8.536,3.744C8.212,3.881 7.848,3.886 7.519,3.76C7.191,3.634 6.924,3.386 6.773,3.067L6.722,2.945L6.322,1.84C6.202,1.509 6.213,1.145 6.354,0.822C6.494,0.499 6.753,0.243 7.077,0.107C7.401,-0.03 7.764,-0.036 8.092,0.09C8.42,0.216 8.688,0.463 8.839,0.781L8.839,0.78Z" fill="#FFFFFF"/>
</svg>
