<svg width="52" height="56" viewBox="0 0 52 56" fill="none" xmlns="http://www.w3.org/2000/svg" xmlns:xlink="http://www.w3.org/1999/xlink">
<path d="M34.636,21.491L32.92,23.206L32.92,23.206L34.636,21.491ZM35.999,30.639C35.999,36.444 31.293,41.15 25.488,41.15L25.488,46.001C33.972,46.001 40.85,39.123 40.85,30.639L35.999,30.639ZM25.488,41.15C19.683,41.15 14.977,36.444 14.977,30.639L10.126,30.639C10.126,39.123 17.004,46.001 25.488,46.001L25.488,41.15ZM14.977,30.639C14.977,24.834 19.683,20.128 25.488,20.128L25.488,15.277C17.004,15.277 10.126,22.155 10.126,30.639L14.977,30.639ZM25.488,20.128C28.276,20.128 30.949,21.235 32.92,23.206L36.351,19.776C33.47,16.895 29.562,15.277 25.488,15.277L25.488,20.128ZM32.92,23.206C34.892,25.178 35.999,27.851 35.999,30.639L40.85,30.639C40.85,26.564 39.232,22.657 36.351,19.776L32.92,23.206Z" fill="#3C3C43" fill-opacity="0.3"/>
<path d="M15.786,10.425C17.125,10.425 18.211,9.34 18.211,8C18.211,6.66 17.125,5.574 15.786,5.574L15.786,10.425ZM35.19,5.574C33.851,5.574 32.765,6.66 32.765,8C32.765,9.34 33.851,10.425 35.19,10.425L35.19,5.574ZM15.786,5.574C14.446,5.574 13.36,6.66 13.36,8C13.36,9.34 14.446,10.426 15.786,10.426L15.786,5.574ZM35.191,10.426C36.53,10.426 37.616,9.34 37.616,8C37.616,6.66 36.53,5.574 35.191,5.574L35.191,10.426ZM18.211,8C18.211,6.66 17.125,5.574 15.786,5.574C14.446,5.574 13.36,6.66 13.36,8L18.211,8ZM13.36,11.234C13.36,12.574 14.446,13.66 15.786,13.66C17.125,13.66 18.211,12.574 18.211,11.234L13.36,11.234ZM13.36,8C13.36,9.34 14.446,10.426 15.786,10.426C17.125,10.426 18.211,9.34 18.211,8L13.36,8ZM18.211,1.532C18.211,0.192 17.125,-0.894 15.786,-0.894C14.446,-0.894 13.36,0.192 13.36,1.532L18.211,1.532ZM37.616,8C37.616,6.66 36.53,5.574 35.191,5.574C33.851,5.574 32.765,6.66 32.765,8L37.616,8ZM32.765,11.234C32.765,12.574 33.851,13.66 35.191,13.66C36.53,13.66 37.616,12.574 37.616,11.234L32.765,11.234ZM32.765,8C32.765,9.34 33.851,10.426 35.191,10.426C36.53,10.426 37.616,9.34 37.616,8L32.765,8ZM37.616,1.532C37.616,0.192 36.53,-0.894 35.191,-0.894C33.851,-0.894 32.765,0.192 32.765,1.532L37.616,1.532ZM26.067,26.943C26.067,25.603 24.981,24.517 23.641,24.517C22.302,24.517 21.216,25.603 21.216,26.943L26.067,26.943ZM23.641,32.486L21.216,32.486C21.216,33.825 22.302,34.911 23.641,34.911L23.641,32.486ZM29.185,34.911C30.524,34.911 31.61,33.825 31.61,32.486C31.61,31.146 30.524,30.06 29.185,30.06L29.185,34.911ZM15.786,5.574C7.301,5.574 0.424,12.452 0.424,20.936L5.275,20.936C5.275,15.131 9.981,10.425 15.786,10.425L15.786,5.574ZM0.424,20.936L0.424,40.341L5.275,40.341L5.275,20.936L0.424,20.936ZM0.424,40.341C0.424,48.825 7.301,55.703 15.786,55.703L15.786,50.852C9.981,50.852 5.275,46.146 5.275,40.341L0.424,40.341ZM15.786,55.703L35.19,55.703L35.19,50.852L15.786,50.852L15.786,55.703ZM35.19,55.703C43.675,55.703 50.553,48.825 50.553,40.341L45.701,40.341C45.701,46.146 40.995,50.852 35.19,50.852L35.19,55.703ZM50.553,40.341L50.553,20.936L45.701,20.936L45.701,40.341L50.553,40.341ZM50.553,20.936C50.553,12.452 43.675,5.574 35.19,5.574L35.19,10.425C40.995,10.425 45.701,15.131 45.701,20.936L50.553,20.936ZM15.786,10.426L35.191,10.426L35.191,5.574L15.786,5.574L15.786,10.426ZM13.36,8L13.36,11.234L18.211,11.234L18.211,8L13.36,8ZM18.211,8L18.211,1.532L13.36,1.532L13.36,8L18.211,8ZM32.765,8L32.765,11.234L37.616,11.234L37.616,8L32.765,8ZM37.616,8L37.616,1.532L32.765,1.532L32.765,8L37.616,8ZM21.216,26.943L21.216,32.486L26.067,32.486L26.067,26.943L21.216,26.943ZM23.641,34.911L29.185,34.911L29.185,30.06L23.641,30.06L23.641,34.911Z" fill="#3C3C43" fill-opacity="0.3"/>
</svg>
